# xmcd
#
# Track frame offsets:
# 150
# 9352
# 21955
# 36685
# 50362
# 60027
# 78002
# 91740
# 103075
# 117227
# 129885
# 143727
#
# Disc length: 3292 seconds
#
#
# Revision: 0
# Processed by: cddbd v1.5.1PL0 Copyright (c) Steve Scherf et al.
# Submitted via: FreeRIP 2.942 
#
DISCID=890cda0c
DTITLE=Country - Millenniym Gold - Country
DYEAR=1900
DGENRE=Country
TTITLE0=Magnificent Seven
TTITLE1=Rubi (Don't Take Your Love To Town)
TTITLE2=Harpey Valley PTA
TTITLE3=Home Is Where You're Happy
TTITLE4=Release Me
TTITLE5=Garden Party
TTITLE6=A Church, A Courtroom And Goodbye
TTITLE7=Soul Deep
TTITLE8=Jabalaya
TTITLE9=I Just Understand
TTITLE10=Today I Started Loving You Again
TTITLE11=Rollin My Sweet Baby's Arms
EXTD=
EXTT0=
EXTT1=
EXTT2=
EXTT3=
EXTT4=
EXTT5=
EXTT6=
EXTT7=
EXTT8=
EXTT9=
EXTT10=
EXTT11=
PLAYORDER=
